<?xml version="1.0" encoding="UTF-8" standalone="no"?>
<!-- Created with Inkscape (http://www.inkscape.org/) -->

<svg
   xmlns:dc="http://purl.org/dc/elements/1.1/"
   xmlns:cc="http://creativecommons.org/ns#"
   xmlns:rdf="http://www.w3.org/1999/02/22-rdf-syntax-ns#"
   xmlns:svg="http://www.w3.org/2000/svg"
   xmlns="http://www.w3.org/2000/svg"
   xmlns:sodipodi="http://sodipodi.sourceforge.net/DTD/sodipodi-0.dtd"
   xmlns:inkscape="http://www.inkscape.org/namespaces/inkscape"
   version="1.1"
   width="32"
   height="32"
   viewBox="0 0 25.6 25.6"
   id="svg3010"
   inkscape:version="0.48.4 r9939"
   sodipodi:docname="Mouse-cursor-hand-pointer.svg"
   inkscape:export-filename="C:\Users\Mohsen\Desktop\hand-hover.png"
   inkscape:export-xdpi="90"
   inkscape:export-ydpi="90">
  <metadata
     id="metadata3034">
    <rdf:RDF>
      <cc:Work
         rdf:about="">
        <dc:format>image/svg+xml</dc:format>
        <dc:type
           rdf:resource="http://purl.org/dc/dcmitype/StillImage" />
        <dc:title></dc:title>
      </cc:Work>
    </rdf:RDF>
  </metadata>
  <sodipodi:namedview
     pagecolor="#ffffff"
     bordercolor="#666666"
     borderopacity="1"
     objecttolerance="10"
     gridtolerance="10"
     guidetolerance="10"
     inkscape:pageopacity="0"
     inkscape:pageshadow="2"
     inkscape:window-width="942"
     inkscape:window-height="786"
     id="namedview3032"
     showgrid="true"
     fit-margin-top="0"
     fit-margin-left="0"
     fit-margin-right="0"
     fit-margin-bottom="0"
     borderlayer="true"
     showborder="true"
     inkscape:showpageshadow="true"
     inkscape:zoom="13.191266"
     inkscape:cx="18.581997"
     inkscape:cy="15.805482"
     inkscape:window-x="102"
     inkscape:window-y="156"
     inkscape:window-maximized="0"
     inkscape:current-layer="svg3010">
    <inkscape:grid
       type="xygrid"
       id="grid3036"
       empspacing="4"
       visible="true"
       enabled="true"
       snapvisiblegridlinesonly="true" />
  </sodipodi:namedview>
  <defs
     id="defs3042" />
  <path
     d="m 9.6233998,4.0063612 c -0.0036,0.2328297 -0.0044,0.4654551 -0.0066,0.6985109 l -0.0014,0.097944 -0.097942,0.00365 c -0.2324387,0.00765 -0.4659074,0.010206 -0.6998422,0.011592 -0.01269,2.3662447 -0.0058,4.7314901 -0.0066,7.0972089 l 0,0.101811 -0.1018185,0.0014 c -0.1964028,0.0022 -0.3940229,0.0036 -0.5915483,0.009 l -0.106968,0.0029 0.00146,-0.106967 c 0.00438,-0.231225 0.00219,-0.462217 -0.00292,-0.692063 -0.8026536,-0.0066 -1.6060809,-0.0108 -2.4087348,0.0029 7.318e-4,0.799548 -0.00146,1.598832 0,2.398387 0.2326732,0.0044 0.4681327,0.01532 0.7036798,-0.0014 l 0.128878,-0.009 -0.019329,0.127585 c -0.033698,0.230882 -0.011159,0.46453 -0.010283,0.695937 0.2220831,0.01167 0.4456759,0.01379 0.6701658,0.01415 l 0.095371,0 0.00773,0.09536 c 0.03727,0.494294 0.018817,0.9906 0.02706,1.487235 0.2306603,0.0094 0.4628449,0.0132 0.6946576,0.01546 l 0.1005274,0.0014 0.00146,0.100525 c 0.00365,0.495863 0.00292,0.991469 0.010284,1.487228 0.2328265,0.0036 0.4672801,0.01553 0.7023889,0.0014 l 0.1185649,-0.0066 -0.009,0.117272 c -0.039171,0.49565 -0.0051,0.99537 -0.0091,1.492384 0.2267286,0.0044 0.4532392,0.0077 0.6804718,0.009 l 0.1018115,0 0.0014,0.10181 c 0.01,0.765597 0.0051,1.53182 0.01546,2.297862 1.3217763,0.01911 2.6445803,0.02086 3.9668743,0.01933 1.353745,-0.0022 2.70722,0.0093 4.060956,-0.0232 -0.02167,-0.763692 0.04675,-1.526992 0.01546,-2.29013 l -0.0036,-0.109541 0.109544,0.0029 c 0.227202,0.0066 0.454785,0.0022 0.680478,-0.0051 0.0084,-0.75955 0.0093,-1.520186 0.01028,-2.279817 l 0,-0.09408 0.09279,-0.009 c 0.230719,-0.0221 0.463407,-0.02377 0.69724,-0.02188 0.0059,-0.850762 -0.01021,-1.700983 0.01546,-2.551745 l 0,-0.0029 0,-0.0029 c -0.02822,-1.021904 -0.0082,-2.044823 -0.02064,-3.067251 -0.229303,0.0015 -0.458059,-5.91e-4 -0.685635,-0.0037 l -0.09923,-0.0015 -0.0029,-0.09923 c -0.0043,-0.225492 -0.0074,-0.452311 -0.0036,-0.679182 -0.235292,-0.0066 -0.469132,5.9e-4 -0.70239,-0.01291 l -0.09021,-0.0051 -0.0066,-0.09021 c -0.01655,-0.234456 -0.0084,-0.4712608 -0.0116,-0.7088238 -0.498781,-0.0022 -0.997124,0.0022 -1.494984,-0.0051 l -0.10053,-0.0015 -0.0014,-0.100519 c -0.0035,-0.225008 -0.0065,-0.4502156 -0.0035,-0.676474 -0.765141,-0.040479 -1.532348,-0.014295 -2.297901,-0.023193 l -0.09794,-0.00146 -0.0036,-0.096653 c -0.01051,-0.2318597 -0.01473,-0.4643539 -0.01415,-0.6985109 -0.497758,-0.00219 -0.995321,0.00146 -1.49241,-0.00904 l -0.09923,-0.00292 -0.0014,-0.099227 c -0.0099,-1.0299792 -0.0044,-2.0603068 -0.0078,-3.0904303 -0.132752,-0.00146 -0.265488,-0.00219 -0.398238,-0.00292 -0.09897,-1.531e-4 -0.197556,2.918e-4 -0.29642,0.00146 l -0.105685,0.00146 0.0014,-0.1056751 c 0.0036,-0.2363889 0.0029,-0.4728945 -0.01933,-0.7075329 -0.526351,0.00146 -1.052424,0.00292 -1.5787601,0 z"
     id="path4109"
     style="font-size:medium;font-style:normal;font-variant:normal;font-weight:normal;font-stretch:normal;text-indent:0;text-align:start;text-decoration:none;line-height:normal;letter-spacing:normal;word-spacing:normal;text-transform:none;direction:ltr;block-progression:tb;writing-mode:lr-tb;text-anchor:start;color:#000000;fill:#ffffff;fill-opacity:1;fill-rule:nonzero;stroke:none;stroke-width:5;marker:none;visibility:visible;display:inline;overflow:visible;enable-background:accumulate;font-family:Acquaintance;-inkscape-font-specification:Acquaintance"
     inkscape:connector-curvature="0" />
  <path
     d="m 9.6228828,4.006106 c 0.5263362,0.00292 1.0526802,0.00219 1.5790152,4.449e-4 0.02523,0.2639363 0.02421,0.5294189 0.01911,0.7938731 -0.535102,0.0051 -1.069687,-0.00146 -1.6047893,0.0051 0.0022,-0.2665183 0.003,-0.5330292 0.0066,-0.7995474 z"
     id="path3016"
     style="fill:#1c1c1c"
     inkscape:connector-curvature="0" />
  <path
     d="m 8.817646,4.8180232 c 0.2660056,-0.00146 0.5325291,-7.319e-4 0.7985337,-0.012398 4.38e-4,2.9430129 0.0051,5.8860318 0.0022,8.8290438 -0.2680616,0.0059 -0.5361312,0.0059 -0.8042007,5.91e-4 -0.0051,-0.263425 -0.0051,-0.527362 -0.0014,-0.791299 -0.2665225,-0.01028 -0.5330452,-0.0087 -0.7995608,-0.0077 -0.00875,-0.269094 -0.010793,-0.538695 -4.448e-4,-0.807789 0.266005,-0.0098 0.532528,-0.0066 0.7990436,-0.0108 7.32e-4,-2.3996698 -0.0066,-4.7993401 0.0058,-7.1995287 z"
     id="path3018"
     style="fill:#1c1c1c"
     inkscape:connector-curvature="0" />
  <path
     d="m 11.224062,4.8190588 c 0.265495,-0.00365 0.530982,-0.00219 0.79647,4.375e-4 0.0036,1.0640018 -0.0036,2.1285212 0.0077,3.1925229 0.530982,0.01393 1.061965,0.00584 1.592939,0.00875 -4.45e-4,0.2654898 0,0.5309724 0.01546,0.796455 0.799052,0.012909 1.599642,-0.019108 2.398175,0.023193 -0.0029,0.2592978 -0.0014,0.518595 0.0044,0.777893 0.532003,0.0098 1.064531,0.0036 1.597059,0.0058 0.0036,0.266518 -0.01342,0.5345758 0.01495,0.8000658 0.26446,0.02319 0.529953,0.0093 0.794924,0.01699 -0.0044,0.259815 -0.0022,0.519631 0.0044,0.779439 0.261884,0.0043 0.52428,0.0066 0.787192,0.0043 0.0124,1.023282 -0.0077,2.046557 0.02064,3.069315 -0.02575,0.851614 -0.01028,1.703222 -0.01597,2.554838 -0.26394,-0.0022 -0.527889,-0.0029 -0.789766,0.02939 -6.91e-4,0.791298 -0.0014,1.583115 -0.01028,2.374414 -0.262911,0.0082 -0.526333,0.01699 -0.78873,0.0044 -0.02991,-0.80522 -0.01597,-1.611463 -0.0082,-2.417204 0.26445,0.0029 0.529428,0.0029 0.794404,5.91e-4 4.43e-4,-1.87128 0.0022,-3.742042 0.0029,-5.613322 -0.264458,-0.0037 -0.528918,-0.0029 -0.793376,0 -0.01495,-0.260326 0.0022,-0.522206 -0.01911,-0.782021 -0.262395,-0.05054 -0.530465,-0.01962 -0.795434,-0.02064 -0.0059,0.802639 0.0093,1.605279 -0.0066,2.408437 -0.261876,5.91e-4 -0.524278,5.91e-4 -0.786156,6.9e-4 -0.01801,-1.070696 4.45e-4,-2.141401 -0.0059,-3.2121048 -0.53665,-0.0029 -1.073298,-0.0015 -1.609436,0 0,0.8021298 0.0082,1.6042508 -6.91e-4,2.4058628 -0.266006,0.0059 -0.531493,0.0059 -0.79698,5.9e-4 -0.0051,-1.069675 -0.0059,-2.1398618 0.0066,-3.2095299 -0.53716,-0.00292 -1.073816,-0.00292 -1.610974,0.00292 -0.0059,1.0686401 0.0044,2.1372799 0,3.2059209 -0.268588,0.0077 -0.537685,0.0082 -0.806265,5.89e-4 0,-2.4027618 0.0014,-4.8060423 0.0059,-7.2093235 z"
     id="path3020"
     style="fill:#1c1c1c"
     inkscape:connector-curvature="0" />
  <path
     d="m 5.6013638,11.233474 c 0.8026541,-0.01342 1.6058186,-0.0093 2.4084723,-0.0029 0.00584,0.266001 0.010283,0.531483 0.00292,0.797484 -0.5325278,0.0124 -1.0650558,0.0029 -1.597066,0.0073 -0.019546,0.529937 0.028372,1.061426 -0.00773,1.590845 -0.2680617,0.03092 -0.5381949,0.01028 -0.8067747,0.0051 -0.00146,-0.799547 0.00146,-1.598577 4.376e-4,-2.398125 z"
     id="path3026"
     style="fill:#1c1c1c"
     inkscape:connector-curvature="0" />
  <path
     d="m 6.4292756,13.644487 c 0.257756,-0.03968 0.5196403,-0.02473 0.779453,-0.01751 0.00584,0.267546 0.00584,0.535611 0.00366,0.803668 0.2680619,0.0014 0.5356133,6.91e-4 0.8036821,0.0044 0.00584,0.533547 0,1.067094 0.00292,1.600641 0.2644589,-0.0014 0.5294355,-6.91e-4 0.794405,0.0029 -0.0036,0.535102 0.034571,1.074316 -0.020131,1.606834 -0.2608484,0.0237 -0.5222148,0.0051 -0.7825528,6.91e-4 -0.00824,-0.528902 -0.0073,-1.057811 -0.011888,-1.586719 -0.2649691,-0.0014 -0.5299458,-0.0059 -0.7949225,-0.01699 -0.00875,-0.526845 0.016994,-1.054718 -0.030925,-1.580017 -0.2562098,6.91e-4 -0.5129374,-0.0036 -0.7686293,-0.01699 -7.319e-4,-0.267027 -0.036104,-0.538185 0.024726,-0.801093 z"
     id="path3030"
     style="fill:#1c1c1c"
     inkscape:connector-curvature="0" />
  <path
     d="m 8.8300243,17.648927 c 0.2618765,-0.02064 0.5253069,-0.0082 0.7882124,-0.0066 0.0073,0.532519 4.45e-4,1.065037 0.0022,1.597038 0.2670335,-6.9e-4 0.5351033,-6.9e-4 0.8026533,0.0082 0.0051,0.532511 -0.0044,1.065548 0.0029,1.59806 2.134743,0.0051 4.269478,0.0044 6.404222,0.0029 0.0082,-0.533031 -0.0022,-1.066059 0.0036,-1.599606 0.273226,-0.0036 0.546444,-0.0073 0.819663,0.0082 0.04332,0.79903 -0.03508,1.598578 -0.0124,2.398643 -1.353738,0.03246 -2.707475,0.02064 -4.061212,0.02268 -1.322293,0.0014 -2.644581,0 -3.9663575,-0.01911 -0.01079,-0.799547 -0.0051,-1.599094 -0.01699,-2.398131 -0.2608474,-4.37e-4 -0.5216968,-0.0044 -0.7825453,-0.0098 0.0044,-0.534065 -0.038661,-1.071732 0.01597,-1.602705 z"
     id="path3038"
     style="fill:#1c1c1c"
     inkscape:connector-curvature="0" />
</svg>
