<?xml version="1.0" encoding="UTF-8" standalone="no"?>
<!-- Created with Inkscape (http://www.inkscape.org/) -->

<svg
   xmlns:dc="http://purl.org/dc/elements/1.1/"
   xmlns:cc="http://creativecommons.org/ns#"
   xmlns:rdf="http://www.w3.org/1999/02/22-rdf-syntax-ns#"
   xmlns:svg="http://www.w3.org/2000/svg"
   xmlns="http://www.w3.org/2000/svg"
   xmlns:sodipodi="http://sodipodi.sourceforge.net/DTD/sodipodi-0.dtd"
   xmlns:inkscape="http://www.inkscape.org/namespaces/inkscape"
   width="12"
   height="12"
   id="svg4543"
   version="1.1"
   inkscape:version="0.48.2 r9819"
   inkscape:export-filename="D:\www\jaws818\data\themes\learningchannel\images\dots.png"
   inkscape:export-xdpi="90"
   inkscape:export-ydpi="90"
   sodipodi:docname="New document 7">
  <defs
     id="defs4545" />
  <sodipodi:namedview
     id="base"
     pagecolor="#ffffff"
     bordercolor="#666666"
     borderopacity="1.0"
     inkscape:pageopacity="0.0"
     inkscape:pageshadow="2"
     inkscape:zoom="22.4"
     inkscape:cx="7.5924673"
     inkscape:cy="7.3610814"
     inkscape:document-units="px"
     inkscape:current-layer="layer1"
     showgrid="true"
     inkscape:window-width="951"
     inkscape:window-height="697"
     inkscape:window-x="165"
     inkscape:window-y="128"
     inkscape:window-maximized="0">
    <inkscape:grid
       type="xygrid"
       id="grid4564"
       empspacing="3"
       visible="true"
       enabled="true"
       snapvisiblegridlinesonly="true" />
  </sodipodi:namedview>
  <metadata
     id="metadata4548">
    <rdf:RDF>
      <cc:Work
         rdf:about="">
        <dc:format>image/svg+xml</dc:format>
        <dc:type
           rdf:resource="http://purl.org/dc/dcmitype/StillImage" />
        <dc:title></dc:title>
      </cc:Work>
    </rdf:RDF>
  </metadata>
  <g
     inkscape:label="Layer 1"
     inkscape:groupmode="layer"
     id="layer1"
     transform="translate(0,-1040.3622)">
    <g
       style="fill:#514439"
       id="g4561"
       transform="matrix(0.02346154,0,0,0.02346154,-0.34615367,1039.9776)">
      <path
         id="path4553"
         d="m 185,100 -45,0 c -27.5,0 -40,12.5 -40,40 l 0,45 c 0,27.5 12.5,40 40,40 l 45,0 c 27.5,0 40,-12.5 40,-40 l 0,-45 c 0,-27.5 -12.5,-40 -40,-40 z m 175,0 -45,0 c -27.5,0 -40,12.5 -40,40 l 0,45 c 0,27.5 12.5,40 40,40 l 45,0 c 27.5,0 40,-12.5 40,-40 l 0,-45 c 0,-27.5 -12.5,-40 -40,-40 z m -175,175 -45,0 c -27.5,0 -40,12.5 -40,40 l 0,45 c 0,27.5 12.5,40 40,40 l 45,0 c 27.5,0 40,-12.5 40,-40 l 0,-45 c 0,-27.5 -12.5,-40 -40,-40 z m 175,0 -45,0 c -27.5,0 -40,12.5 -40,40 l 0,45 c 0,27.5 12.5,40 40,40 l 45,0 c 27.5,0 40,-12.5 40,-40 l 0,-45 c 0,-27.5 -12.5,-40 -40,-40 z"
         inkscape:connector-curvature="0" />
    </g>
  </g>
</svg>
