<?xml version="1.0" encoding="UTF-8" standalone="no"?>
<!-- Created with Inkscape (http://www.inkscape.org/) -->

<svg
   xmlns:dc="http://purl.org/dc/elements/1.1/"
   xmlns:cc="http://creativecommons.org/ns#"
   xmlns:rdf="http://www.w3.org/1999/02/22-rdf-syntax-ns#"
   xmlns:svg="http://www.w3.org/2000/svg"
   xmlns="http://www.w3.org/2000/svg"
   xmlns:sodipodi="http://sodipodi.sourceforge.net/DTD/sodipodi-0.dtd"
   xmlns:inkscape="http://www.inkscape.org/namespaces/inkscape"
   width="12"
   height="12"
   id="svg3133"
   version="1.1"
   inkscape:version="0.48.2 r9819"
   inkscape:export-filename="D:\www\jaws818\data\themes\learningchannel\images\tick2.png"
   inkscape:export-xdpi="90"
   inkscape:export-ydpi="90"
   sodipodi:docname="New document 2">
  <defs
     id="defs3135" />
  <sodipodi:namedview
     id="base"
     pagecolor="#ffffff"
     bordercolor="#666666"
     borderopacity="1.0"
     inkscape:pageopacity="0.0"
     inkscape:pageshadow="2"
     inkscape:zoom="31.678384"
     inkscape:cx="8.6583713"
     inkscape:cy="6.3501566"
     inkscape:document-units="px"
     inkscape:current-layer="layer1"
     showgrid="true"
     inkscape:window-width="1081"
     inkscape:window-height="683"
     inkscape:window-x="101"
     inkscape:window-y="112"
     inkscape:window-maximized="0">
    <inkscape:grid
       type="xygrid"
       id="grid3141"
       empspacing="3"
       visible="true"
       enabled="true"
       snapvisiblegridlinesonly="true" />
  </sodipodi:namedview>
  <metadata
     id="metadata3138">
    <rdf:RDF>
      <cc:Work
         rdf:about="">
        <dc:format>image/svg+xml</dc:format>
        <dc:type
           rdf:resource="http://purl.org/dc/dcmitype/StillImage" />
        <dc:title></dc:title>
      </cc:Work>
    </rdf:RDF>
  </metadata>
  <g
     inkscape:label="Layer 1"
     inkscape:groupmode="layer"
     id="layer1"
     transform="translate(0,-1040.3622)">
    <g
       style="fill:#514439"
       id="g3153"
       transform="matrix(0.0227276,0,0,0.02272727,1,1041.6349)">
      <path
         id="path3145"
         d="m 352,232.5 0,79.5 q 0,29.75 -21.125,50.875 Q 309.75,384 280,384 L 72,384 Q 42.25,384 21.125,362.875 0,341.75 0,312 L 0,104 Q 0,74.25 21.125,53.125 42.25,32 72,32 l 208,0 q 15.75,0 29.25,6.25 3.75,1.75 4.5,5.75 0.75,4.25 -2.25,7.25 L 299.25,63.5 q -2.5,2.5 -5.75,2.5 -0.75,0 -2.25,-0.5 Q 285.5,64 280,64 L 72,64 Q 55.5,64 43.75,75.75 32,87.5 32,104 l 0,208 q 0,16.5 11.75,28.25 Q 55.5,352 72,352 l 208,0 q 16.5,0 28.25,-11.75 Q 320,328.5 320,312 l 0,-63.5 q 0,-3.25 2.25,-5.5 l 16,-16 q 2.5,-2.5 5.75,-2.5 1.5,0 3,0.75 5,2 5,7.25 z m 57.75,-122.25 -203.5,203.5 q -6,6 -14.25,6 -8.25,0 -14.25,-6 L 70.25,206.25 q -6,-6 -6,-14.25 0,-8.25 6,-14.25 l 27.5,-27.5 q 6,-6 14.25,-6 8.25,0 14.25,6 L 192,216 353.75,54.25 q 6,-6 14.25,-6 8.25,0 14.25,6 l 27.5,27.5 q 6,6 6,14.25 0,8.25 -6,14.25 z"
         inkscape:connector-curvature="0" />
    </g>
  </g>
</svg>
